<svg xmlns="http://www.w3.org/2000/svg" viewBox="0 0 200 60" width="200" height="60"><defs><filter id="f"><feTurbulence type="fractalNoise" baseFrequency=".9" numOctaves="2" seed="3"/><feColorMatrix values="0 0 0 0 .55  0 0 0 0 .5  0 0 0 0 .4  0 0 0 .25 0"/><feComposite in2="SourceGraphic" operator="in"/></filter></defs><path d="M6 8 L14 4 L22 9 L30 5 L194 6 L188 14 L196 22 L190 30 L197 38 L190 46 L195 55 L8 56 L2 48 L9 40 L3 31 L10 22 L3 14 Z" fill="#e7dcb8" fill-opacity=".78"/><path d="M6 8 L14 4 L22 9 L30 5 L194 6 L188 14 L196 22 L190 30 L197 38 L190 46 L195 55 L8 56 L2 48 L9 40 L3 31 L10 22 L3 14 Z" filter="url(#f)"/></svg>
